<?xml version="1.0" encoding="utf-8"?>
<!-- Generator: Adobe Illustrator 19.1.0, SVG Export Plug-In . SVG Version: 6.00 Build 0)  -->
<svg version="1.1" id="Capa_1" xmlns="http://www.w3.org/2000/svg" xmlns:xlink="http://www.w3.org/1999/xlink" x="0px" y="0px"
	 viewBox="0 0 20 20" style="enable-background:new 0 0 20 20;" xml:space="preserve">
<style type="text/css">
	.st0{fill:#EDE8DF;}
</style>
<path class="st0" d="M16.1,0H3.9C1.7,0,0,1.7,0,3.9v4.1v8.2C0,18.3,1.7,20,3.9,20h12.3c2.1,0,3.9-1.7,3.9-3.9V7.9V3.9
	C20,1.7,18.3,0,16.1,0z M17.2,2.3l0.4,0v0.4v2.9l-3.4,0l0-3.4L17.2,2.3z M7.1,7.9C7.8,7.1,8.8,6.5,10,6.5s2.2,0.6,2.9,1.5
	c0.4,0.6,0.7,1.3,0.7,2.1c0,1.9-1.6,3.5-3.5,3.5S6.5,11.9,6.5,10C6.5,9.2,6.7,8.5,7.1,7.9z M18.1,16.1c0,1.1-0.9,1.9-1.9,1.9H3.9
	c-1.1,0-1.9-0.9-1.9-1.9V7.9h3C4.7,8.6,4.5,9.3,4.5,10c0,3,2.5,5.5,5.5,5.5c3,0,5.5-2.5,5.5-5.5c0-0.7-0.1-1.4-0.4-2.1h3V16.1z"/>
</svg>
