<?xml version="1.0" encoding="utf-8"?>
<!-- Generator: Adobe Illustrator 19.1.0, SVG Export Plug-In . SVG Version: 6.00 Build 0)  -->
<svg version="1.1" xmlns="http://www.w3.org/2000/svg" xmlns:xlink="http://www.w3.org/1999/xlink" x="0px" y="0px"
	 viewBox="0 0 70.3 104.4" style="enable-background:new 0 0 70.3 104.4;" xml:space="preserve">
<style type="text/css">
	.st0{fill:#F7F0E6;}
</style>
<g id="Layer_1">
</g>
<g id="Layer_2">
</g>
<g id="Layer_3">
	<g>
		<path class="st0" d="M70.3,101c-3.3,0.7-8.1-1.1-12.6-7.3c-5.1-7-9.7-17.2-23.6-31.1C23.6,51.9,7.9,51.6,2.3,51.6l0,50.8l8.9,0
			v-0.2c-2.7,0-3.7-7.8-3.7-10.1L7.1,55.9c30.4-0.1,36.7,35.5,46.8,44.7c2.2,2,4.6,3.8,7.6,3.8C63.3,104.4,68.9,103.5,70.3,101
			L70.3,101z"/>
		<path class="st0" d="M29.9,0C17.1,0,0,7.6,0,24.7c0,17,16,25.7,30,25.7S59.8,42.9,59.8,25S42.9,0,29.9,0z M29.9,44.1
			c-12.6,0-27.5-5.9-27.5-18.9c0-13,16-18.9,27.5-18.9c11.7,0,27.5,5.2,27.5,18.9S42.5,44.1,29.9,44.1z"/>
	</g>
</g>
<g id="Layer_4">
</g>
</svg>
