<?xml version="1.0" encoding="utf-8"?>
<!-- Generator: Adobe Illustrator 19.1.0, SVG Export Plug-In . SVG Version: 6.00 Build 0)  -->
<svg version="1.1" id="Layer_1" xmlns="http://www.w3.org/2000/svg" xmlns:xlink="http://www.w3.org/1999/xlink" x="0px" y="0px"
	 viewBox="0 0 258.3 50" style="enable-background:new 0 0 258.3 50;" xml:space="preserve">
<style type="text/css">
	.st0{fill:#ECE7DE;}
</style>
<g>
	<g>
		<path class="st0" d="M19.1,20.6c-0.8-0.9-1.7-1.7-2.7-2.4c-1.1-0.8-2.3-1.5-3.7-2.2l0.4,0.2c-2.3-1.2-4.2-2.5-5.8-3.7
			C5.5,11,4.7,9.5,4.7,8c0-1.6,0.6-2.9,1.7-3.9c1.1-1,2.5-1.5,4.3-1.5c2.4,0,4.3,0.6,5.7,1.7c1.4,1.1,2.4,2.5,2.9,4.1l0.8-0.1
			l-0.7-7.7h-0.6c0,0.2-0.1,0.4-0.2,0.6c-0.1,0.2-0.4,0.4-0.7,0.4c-0.3-0.1-0.8-0.2-1.3-0.3c-0.5-0.2-1.1-0.3-1.8-0.5
			C13.5,0.2,12.1,0,10.6,0c-2.8,0-5.1,0.8-7,2.5c-1.9,1.7-2.9,3.7-2.9,6c0,2.6,0.9,4.7,2.6,6.3c0.9,0.8,1.8,1.5,2.8,2.2
			c1,0.7,2.2,1.4,3.5,2.1c1.1,0.6,2.1,1.2,2.9,1.8c0.9,0.6,1.6,1.2,2.3,1.8c1.4,1.2,2.1,2.8,2.1,4.7c0,0.9-0.2,1.7-0.5,2.5
			c-0.4,0.8-0.8,1.4-1.5,2c-0.6,0.6-1.3,1-2.2,1.3c-0.8,0.3-1.8,0.5-2.7,0.5c-1.2,0-2.3-0.2-3.3-0.5c-1-0.3-1.9-0.8-2.7-1.4
			c-0.8-0.6-1.5-1.3-2.1-2c-0.6-0.8-1.1-1.6-1.5-2.4L0,27.5l0.9,7.7h0.6c0-0.1,0.1-0.3,0.2-0.5c0.1-0.2,0.3-0.3,0.7-0.4
			c0.4,0.1,0.8,0.2,1.4,0.4c0.5,0.2,1.2,0.4,2,0.6c1.5,0.4,3.1,0.6,4.7,0.6c3.1,0,5.6-0.9,7.7-2.7c2.2-1.8,3.2-4,3.2-6.6
			c0-1.2-0.2-2.3-0.6-3.4C20.5,22.4,19.9,21.4,19.1,20.6z"/>
		<path class="st0" d="M57.2,33.1L43.6,0.3h-2.3L28.2,31.8c-0.4,0.9-0.8,1.6-1.4,2.1c-0.5,0.5-1.2,0.9-1.9,0.9v0.5h7.7v-0.5
			c-0.8,0-1.4-0.2-1.7-0.5c-0.1-0.1-0.2-0.4-0.2-0.7c0-0.3,0.1-0.9,0.4-1.6l2.9-7.2h15.4l3.2,7.8c0.2,0.4,0.3,0.8,0.2,1.1
			c0,0.3-0.1,0.5-0.2,0.6c-0.3,0.3-0.9,0.4-1.7,0.4v0.5h8.7v-0.5c-0.4-0.1-0.8-0.2-1.1-0.4C58,34.3,57.6,33.8,57.2,33.1z M34.9,22.4
			l6.8-16.7l6.8,16.7H34.9z"/>
		<path class="st0" d="M84.8,32.5c-1.8,0.6-3.6,0.9-5.4,0.9c-4.2,0-7.5-1.4-9.9-4.1c-2.4-2.7-3.6-6.5-3.6-11.3
			c0-4.7,1.2-8.4,3.5-11.3c2.4-2.8,5.6-4.2,9.7-4.2c1,0,1.9,0.1,2.8,0.4c0.9,0.2,1.9,0.6,2.7,1c0.9,0.5,1.7,1.1,2.5,1.8
			c0.7,0.8,1.3,1.7,1.9,2.9l0.6-0.2L89.6,7l-0.3-7h-0.6c-0.1,0.3-0.2,0.6-0.5,0.9c-0.2,0.3-0.5,0.5-0.8,0.5
			c-0.3-0.1-0.8-0.2-1.4-0.4c-0.6-0.2-1.3-0.3-2.1-0.5C82.2,0.2,80.4,0,78.5,0C73.5,0,69.3,1.7,66,5.1c-3.2,3.4-4.9,7.7-4.9,13
			c0,5.5,1.6,9.8,4.7,13.1c3.1,3.2,7.4,4.9,12.6,4.9c2.3,0,4.3-0.3,6.2-1c1.9-0.6,3.7-1.7,5.3-3.1l-0.7-1.9
			C88.1,31.1,86.6,31.9,84.8,32.5z"/>
		<path class="st0" d="M156.5,29L144.1,0.7h-8v0.5h0.8c0.8,0,1.3,0.2,1.6,0.5c0.2,0.4,0.4,1,0.4,2V31c0,1.4-0.1,2.4-0.4,3
			c-0.2,0.6-0.8,0.8-1.6,0.8h-0.8v0.5h8.2v-0.5h-0.8c-0.8,0-1.2-0.3-1.5-0.8c-0.2-0.6-0.4-1.6-0.4-3V5.3l13.1,30h1.7l13.1-30.7v27.6
			c0,1-0.1,1.6-0.4,2c-0.2,0.4-0.7,0.5-1.5,0.5H167v0.5h9.4v-0.5h-0.7c-0.7,0-1.2-0.2-1.4-0.5c-0.2-0.4-0.3-1-0.3-2V3.7
			c0-1,0.1-1.6,0.3-2c0.2-0.4,0.7-0.5,1.4-0.5h0.7V0.7h-7.8L156.5,29z"/>
		<path class="st0" d="M216.7,33.1L203.1,0.3h-2.3l-13.1,31.5c-0.4,0.9-0.8,1.6-1.4,2.1c-0.5,0.5-1.2,0.9-1.9,0.9v0.5h7.7v-0.5
			c-0.8,0-1.4-0.2-1.7-0.5c-0.1-0.1-0.2-0.4-0.2-0.7c0-0.3,0.1-0.9,0.4-1.6l2.9-7.2h15.4l3.2,7.8c0.2,0.4,0.3,0.8,0.2,1.1
			c0,0.3-0.1,0.5-0.2,0.6c-0.3,0.3-0.9,0.4-1.7,0.4v0.5h8.7v-0.5c-0.4-0.1-0.8-0.2-1.1-0.4C217.5,34.3,217.1,33.8,216.7,33.1z
			 M194.4,22.4l6.8-16.7l6.8,16.7H194.4z"/>
		<path class="st0" d="M250,0.7v0.5h0.9c0.8,0,1.3,0.3,1.6,0.8c0.2,0.5,0.3,1.5,0.3,3v23.7c-3.2-4.8-6.4-9.5-9.6-14
			c-3.2-4.5-6.4-9.2-9.6-14h-6.8v0.5h0.6c0.3,0,0.6,0,0.7,0.1c0.2,0.1,0.4,0.2,0.5,0.5l0.9,1.6v27.8c0,1.4-0.1,2.3-0.4,2.9
			c-0.2,0.5-0.8,0.8-1.6,0.8h-0.8v0.5h8.2v-0.5h-0.8c-0.8,0-1.3-0.3-1.5-0.8c-0.2-0.5-0.4-1.5-0.4-2.9V6.2L253,35.6h2.6V5
			c0-1.4,0.1-2.4,0.4-3c0.2-0.5,0.8-0.8,1.5-0.8h0.8V0.7H250z"/>
		<path class="st0" d="M109.4,15.6l13.1-12.9c0.6-0.6,1.1-1,1.6-1.2c0.4-0.2,1.1-0.3,1.9-0.4V0.7h-9.5v0.5h0.4
			c1.1,0,1.6,0.3,1.6,0.9c0,0.3-0.2,0.6-0.4,1c-0.3,0.4-0.6,0.8-1.1,1.3l-12.8,12.4v-13c0-1,0.1-1.6,0.3-2c0.2-0.4,0.7-0.5,1.5-0.5
			h0.7V0.7h-9.5v0.5H98c0.8,0,1.3,0.2,1.5,0.5c0.2,0.4,0.3,1,0.3,2v28.6c0,1-0.1,1.6-0.3,2c-0.2,0.4-0.7,0.5-1.5,0.5h-0.7v0.5h9.5
			v-0.5h-0.7c-0.8,0-1.3-0.2-1.5-0.5c-0.2-0.4-0.3-1-0.3-2V20.2l2-1.8c4.5,5.1,25,27.1,39.9,24.4C142.7,43.3,130.8,42.1,109.4,15.6z
			"/>
		<path class="st0" d="M146.2,42.9c0.7-0.1,1.1-0.2,1.1-0.2C147,42.8,146.6,42.8,146.2,42.9z"/>
	</g>
	<g>
		<path class="st0" d="M146.2,43.1c0.8-0.1,1.1-0.2,1.1-0.2C146.9,42.9,146.6,43,146.2,43.1z"/>
		<path class="st0" d="M159,42.5l-3,7.4h1.3l0.8-2.2h2.7l0.8,2.2h1.3l-2.9-7.4H159z M160.5,46.6h-1.8l0.9-2.4L160.5,46.6z"/>
		<path class="st0" d="M181.2,46.9c0,1.4-0.6,2-1.9,2c-1.3,0-1.9-0.6-1.9-2v-4.4h-1.2v4.3c0,2,1.1,3.2,3,3.2c1.9,0,3-1.2,3-3.2v-4.3
			h-1.2V46.9z"/>
		<path class="st0" d="M198.8,45.5c-0.9-0.3-1.4-0.4-1.4-0.9c0-0.8,0.8-1,1.5-1c0.7,0,1.2,0.2,1.6,0.4l0.3,0.2v-1.3l-0.1-0.1
			c-0.6-0.3-1.2-0.4-1.8-0.4c-1.9,0-2.6,1.1-2.6,2.2c0,1.4,1.2,1.7,2.2,2c1,0.3,1.7,0.6,1.7,1.3c0,0.6-0.5,0.9-1.6,0.9
			c-0.7,0-1.4-0.2-1.9-0.5l-0.3-0.2v1.4l0.1,0.1c0.6,0.3,1.4,0.5,2.2,0.5c1.7,0,2.7-0.8,2.7-2.1C201.3,46.2,199.9,45.8,198.8,45.5z"
			/>
		<polygon class="st0" points="214.5,43.7 217,43.7 217,49.9 218.2,49.9 218.2,43.7 220.6,43.7 220.6,42.5 214.5,42.5 		"/>
		<rect x="234.2" y="42.5" class="st0" width="1.2" height="7.4"/>
		<polygon class="st0" points="254.7,47.9 250.9,42.5 249.7,42.5 249.7,49.9 250.9,49.9 250.9,44.5 254.6,49.8 254.7,49.9 
			255.9,49.9 255.9,42.5 254.7,42.5 		"/>
	</g>
</g>
</svg>
